<svg xmlns="http://www.w3.org/2000/svg" viewBox="0 0 24 24" fill="none">
  <path d="M9 3.5A3.5 3.5 0 0 0 5.5 7v.25A3.75 3.75 0 0 0 3 10.8a3.7 3.7 0 0 0 2.1 3.35A3.5 3.5 0 0 0 8.5 19H10V5A1.5 1.5 0 0 0 8.5 3.5H9Z" stroke="white" stroke-width="1.8" stroke-linecap="round" stroke-linejoin="round"/>
  <path d="M15 3.5A3.5 3.5 0 0 1 18.5 7v.25A3.75 3.75 0 0 1 21 10.8a3.7 3.7 0 0 1-2.1 3.35A3.5 3.5 0 0 1 15.5 19H14V5a1.5 1.5 0 0 1 1.5-1.5H15Z" stroke="white" stroke-width="1.8" stroke-linecap="round" stroke-linejoin="round"/>
  <path d="M7 8.5h3M14 8.5h3M7 13h3M14 13h3M12 5v14" stroke="white" stroke-width="1.8" stroke-linecap="round"/>
  <circle cx="12" cy="20" r="1.2" fill="white"/>
</svg>